<?xml version="1.0" encoding="UTF-8" standalone="no"?>
<svg
   xmlns:dc="http://purl.org/dc/elements/1.1/"
   xmlns:cc="http://creativecommons.org/ns#"
   xmlns:rdf="http://www.w3.org/1999/02/22-rdf-syntax-ns#"
   xmlns:svg="http://www.w3.org/2000/svg"
   xmlns="http://www.w3.org/2000/svg"
   xmlns:sodipodi="http://sodipodi.sourceforge.net/DTD/sodipodi-0.dtd"
   xmlns:inkscape="http://www.inkscape.org/namespaces/inkscape"
   width="210mm"
   height="297mm"
   viewBox="0 0 210 297"
   version="1.1"
   id="svg8"
   inkscape:version="1.0.1 (3bc2e813f5, 2020-09-07)"
   sodipodi:docname="loveajio-icon.svg">
  <defs
     id="defs2" />
  <sodipodi:namedview
     id="base"
     pagecolor="#ffffff"
     bordercolor="#666666"
     borderopacity="1.0"
     inkscape:pageopacity="0.0"
     inkscape:pageshadow="2"
     inkscape:zoom="0.98994949"
     inkscape:cx="408.07736"
     inkscape:cy="538.58287"
     inkscape:document-units="mm"
     inkscape:current-layer="layer1"
     inkscape:document-rotation="0"
     showgrid="false"
     inkscape:window-width="2560"
     inkscape:window-height="1376"
     inkscape:window-x="0"
     inkscape:window-y="0"
     inkscape:window-maximized="1" />
  <metadata
     id="metadata5">
    <rdf:RDF>
      <cc:Work
         rdf:about="">
        <dc:format>image/svg+xml</dc:format>
        <dc:type
           rdf:resource="http://purl.org/dc/dcmitype/StillImage" />
        <dc:title />
      </cc:Work>
    </rdf:RDF>
  </metadata>
  <g
     inkscape:groupmode="layer"
     id="layer2"
     inkscape:label="background"
     style="display:none">
    <rect
       id="rect45"
       width="110"
       height="110"
       x="51.990189"
       y="3.1529448"
       style="fill:#3c3641;fill-opacity:1;stroke-width:0.291041"
       inkscape:export-xdpi="9.2399998"
       inkscape:export-ydpi="9.2399998" />
  </g>
  <g
     inkscape:label="knot"
     inkscape:groupmode="layer"
     id="layer1">
    <g
       id="g24"
       transform="matrix(0.93012216,0,0,0.90739728,7.7440936,-70.339052)"
       inkscape:export-xdpi="10.16"
       inkscape:export-ydpi="10.16"
       style="fill:#da4a91;fill-opacity:1;stroke:#da4a91;stroke-opacity:1">
      <path
         style="fill:#da4a91;fill-opacity:1;stroke:#da4a91;stroke-width:0.264583;stroke-opacity:1"
         d="m 103.31373,90.753375 c 0.49365,-0.509323 0.95708,-0.926042 1.02984,-0.926042 0.0728,0 -0.27161,0.416719 -0.76526,0.926042 -0.49365,0.509323 -0.95709,0.926042 -1.02985,0.926042 -0.0728,0 0.27161,-0.416719 0.76527,-0.926042 z"
         id="path40" />
      <path
         style="fill:#da4a91;fill-opacity:1;stroke:#da4a91;stroke-width:0.264583;stroke-opacity:1"
         d="m 53.094469,193.14713 c 0.0054,-0.43657 0.06469,-0.58313 0.131774,-0.3257 0.06708,0.25743 0.06267,0.61462 -0.0098,0.79375 -0.07248,0.17913 -0.127363,-0.0315 -0.121971,-0.46805 z M 143.49665,148.3664 c -0.32911,-0.41965 -0.31975,-0.42901 0.0999,-0.0999 0.44073,0.34564 0.58089,0.56292 0.36313,0.56292 -0.0549,0 -0.2633,-0.20836 -0.46302,-0.46302 z m -1.32292,-1.32292 c -0.32911,-0.41965 -0.31975,-0.429 0.0999,-0.0999 0.44073,0.34565 0.58089,0.56292 0.36313,0.56292 -0.0549,0 -0.2633,-0.20836 -0.46302,-0.46302 z"
         id="path38" />
      <path
         style="fill:#da4a91;fill-opacity:1;stroke:#da4a91;stroke-width:0.264583;stroke-opacity:1"
         d="m 138.73415,151.80598 c -0.32911,-0.41965 -0.31975,-0.429 0.0999,-0.0999 0.44073,0.34565 0.58089,0.56292 0.36313,0.56292 -0.0549,0 -0.2633,-0.20836 -0.46302,-0.46302 z m -68.22876,-3.90261 c 0.341776,-0.3638 0.68094,-0.66145 0.753701,-0.66145 0.07276,0 -0.147342,0.29765 -0.489117,0.66145 -0.341776,0.36381 -0.68094,0.66146 -0.7537,0.66146 -0.07276,0 0.147341,-0.29765 0.489116,-0.66146 z"
         id="path36" />
      <path
         style="fill:#da4a91;fill-opacity:1;stroke:#da4a91;stroke-width:0.264583;stroke-opacity:1"
         d="m 81.374197,139.94383 c 0.0127,-0.30823 0.07539,-0.37092 0.15985,-0.15986 0.07643,0.191 0.06703,0.4192 -0.02088,0.50712 -0.08792,0.0879 -0.150453,-0.0684 -0.138965,-0.34726 z"
         id="path34" />
      <path
         style="fill:#da4a91;fill-opacity:1;stroke:#da4a91;stroke-width:0.264583;stroke-opacity:1"
         d="m 93.631296,171.51744 -0.504029,-0.59532 0.595313,0.50403 c 0.559445,0.47367 0.715761,0.6866 0.504028,0.6866 -0.05021,0 -0.318098,-0.26789 -0.595312,-0.59531 z m 3.84157,-4.10104 -0.641432,-0.72761 0.727604,0.64143 c 0.680056,0.59952 0.84894,0.81378 0.641432,0.81378 -0.04739,0 -0.374814,-0.32742 -0.727604,-0.7276 z M 81.374197,140.73758 c 0.0127,-0.30823 0.07539,-0.37092 0.15985,-0.15986 0.07643,0.191 0.06703,0.4192 -0.02088,0.50712 -0.08792,0.0879 -0.150453,-0.0684 -0.138965,-0.34726 z m 23.477423,-6.64099 c 0.19099,-0.0764 0.41919,-0.067 0.50712,0.0209 0.0879,0.0879 -0.0684,0.15045 -0.34727,0.13896 -0.30823,-0.0127 -0.37092,-0.0754 -0.15985,-0.15985 z m 3.42304,0.006 c 0.18191,-0.0734 0.47956,-0.0734 0.66146,0 0.1819,0.0734 0.0331,0.13345 -0.33073,0.13345 -0.3638,0 -0.51263,-0.06 -0.33073,-0.13345 z"
         id="path32" />
      <path
         style="fill:#da4a91;fill-opacity:1;stroke:#da4a91;stroke-width:0.264583;stroke-opacity:1"
         d="m 98.517476,168.47473 c -0.329108,-0.41965 -0.319749,-0.429 0.0999,-0.0999 0.254661,0.19972 0.463021,0.40808 0.463021,0.46302 0,0.21777 -0.217274,0.0776 -0.562917,-0.36312 z M 81.432593,142.47942 c 0,-0.80037 0.0496,-1.12779 0.110223,-0.72761 0.06062,0.40018 0.06062,1.05503 0,1.45521 -0.06062,0.40018 -0.110223,0.0728 -0.110223,-0.7276 z m 5.552639,-0.1323 c 0.0021,-0.7276 0.05337,-0.99385 0.114186,-0.59167 0.06082,0.40218 0.05919,0.9975 -0.0036,1.32292 -0.0628,0.32542 -0.112559,-0.004 -0.110575,-0.73125 z m 19.308698,-2.7034 c 0.40218,-0.0608 0.99749,-0.0592 1.32291,0.004 0.32543,0.0628 -0.004,0.11256 -0.73124,0.11058 -0.7276,-0.002 -0.99386,-0.0534 -0.59167,-0.11419 z m -0.26822,-5.55589 c 0.40018,-0.0606 1.05502,-0.0606 1.4552,0 0.40019,0.0606 0.0728,0.11022 -0.7276,0.11022 -0.80036,0 -1.12779,-0.0496 -0.7276,-0.11022 z"
         id="path30" />
      <path
         style="fill:#da4a91;fill-opacity:1;stroke:#da4a91;stroke-width:0.264583;stroke-opacity:1"
         d="m 115.74914,167.74712 c 0.49366,-0.50932 0.95709,-0.92604 1.02985,-0.92604 0.0728,0 -0.27161,0.41672 -0.76526,0.92604 -0.49366,0.50933 -0.95709,0.92605 -1.02985,0.92605 -0.0728,0 0.27161,-0.41672 0.76526,-0.92605 z M 73.944974,152.45079 c 0,-0.0455 0.386953,-0.43249 0.859896,-0.85989 l 0.859896,-0.77711 -0.777105,0.8599 c -0.724371,0.80154 -0.942687,0.98151 -0.942687,0.7771 z m 12.985473,-8.53821 c 0.0127,-0.30823 0.07539,-0.37092 0.159851,-0.15986 0.07643,0.191 0.06703,0.4192 -0.02088,0.50712 -0.08792,0.0879 -0.150452,-0.0684 -0.138964,-0.34726 z m 0,-3.175 c 0.0127,-0.30823 0.07539,-0.37092 0.159851,-0.15986 0.07643,0.191 0.06703,0.4192 -0.02088,0.50712 -0.08792,0.0879 -0.150452,-0.0684 -0.138964,-0.34726 z m 17.904633,-1.07922 c 0.1819,-0.0734 0.47956,-0.0734 0.66146,0 0.1819,0.0734 0.0331,0.13345 -0.33073,0.13345 -0.3638,0 -0.51263,-0.0601 -0.33073,-0.13345 z m 3.45612,-0.006 c 0.191,-0.0764 0.4192,-0.067 0.50712,0.0209 0.0879,0.0879 -0.0684,0.15045 -0.34727,0.13896 -0.30822,-0.0127 -0.37092,-0.0754 -0.15985,-0.15985 z"
         id="path28" />
      <path
         style="fill:#da4a91;fill-opacity:1;stroke:#da4a91;stroke-width:0.264583;stroke-opacity:1"
         d="m 54.997662,195.93608 c -0.307323,-0.12723 -0.827455,-0.56867 -1.155849,-0.98097 -0.567492,-0.7125 -0.588748,-0.90111 -0.428935,-3.80613 0.649406,-11.80461 4.639825,-25.18129 10.16207,-34.06528 3.175255,-5.10823 7.658555,-10.23539 9.203491,-10.52522 1.802633,-0.33817 3.283202,0.85606 3.283202,2.64825 0,0.79414 -0.358947,1.32923 -2.535418,3.77963 -5.768364,6.49436 -9.724482,14.13303 -12.280128,23.71108 -0.849018,3.18196 -2.018488,9.71888 -2.161866,12.08406 l -0.08821,1.45521 0.926041,-0.081 c 1.888376,-0.16511 7.919126,-1.1785 11.509376,-1.934 19.771486,-4.16054 35.074864,-11.17765 44.217234,-20.27508 4.12684,-4.10656 6.82372,-8.10858 8.75865,-12.99731 1.03696,-2.61998 1.82276,-3.4709 3.20725,-3.47311 0.85599,-0.001 2.05444,0.753 2.39953,1.51039 0.48481,1.06405 0.32659,1.95284 -0.86136,4.83862 -4.84873,11.77854 -15.64047,21.1979 -32.585885,28.44194 -3.904499,1.66915 -12.030092,4.36242 -17.065627,5.6565 -9.239742,2.37452 -23.012308,4.62974 -24.503562,4.01239 z m 98.322318,-0.27354 c -11.97171,-1.59838 -24.01722,-4.57921 -33.76839,-8.35647 -2.92612,-1.13348 -3.67015,-1.82536 -3.67015,-3.4129 0,-1.3268 0.56351,-2.09474 1.84825,-2.51874 0.75335,-0.24863 1.24249,-0.14065 4.0029,0.88366 7.05475,2.61783 13.59519,4.50101 20.83985,6.0004 4.48811,0.92888 11.87964,2.12267 12.05645,1.94721 0.21472,-0.21307 -0.5076,-5.73111 -1.19083,-9.09712 -4.39128,-21.6342 -16.06728,-35.48176 -33.67254,-39.93511 -5.8906,-1.49006 -14.55764,-1.88379 -21.038203,-0.95574 -3.097025,0.44351 -3.471577,0.45016 -4.257268,0.0755 -1.67903,-0.80067 -1.90975,-3.36389 -0.403381,-4.48142 1.323422,-0.9818 5.068237,-1.38877 12.818932,-1.39312 6.33943,-0.004 7.53102,0.0656 10.58334,0.61408 10.65009,1.9138 18.63193,5.99345 25.66458,13.11759 9.58299,9.70767 15.6363,24.5479 17.07376,41.85791 0.34514,4.15616 0.0973,5.14967 -1.44532,5.79423 -1.0985,0.45898 -0.92209,0.46352 -5.44198,-0.13994 z M 95.905392,173.26365 c -0.612865,-0.2386 -3.319296,-2.93081 -5.013693,-4.98736 -4.65088,-5.64493 -7.583803,-12.00177 -8.789313,-19.05 -0.466961,-2.73016 -0.524854,-3.93493 -0.413216,-8.59896 0.148579,-6.20718 0.592328,-9.51113 2.045634,-15.23078 2.876979,-11.32269 8.539793,-21.85048 16.933086,-31.480455 2.91383,-3.343153 7.42609,-7.432088 8.44962,-7.656891 1.2893,-0.283179 2.4393,0.488457 4.45332,2.988125 8.44841,10.485626 14.1226,22.622531 16.86259,36.068551 0.79443,3.89853 0.75939,4.65434 -0.26322,5.67695 -0.48161,0.48161 -0.92492,0.63867 -1.80268,0.63867 -1.62928,0 -2.41885,-0.78535 -2.82218,-2.8071 -2.42684,-12.16484 -5.96739,-21.22554 -11.69028,-29.916844 -2.15482,-3.272508 -4.12788,-5.905223 -4.4256,-5.905223 -0.37933,0 -5.02951,4.881932 -7.05666,7.408337 -6.516739,8.12173 -11.631617,18.52245 -13.746691,27.95288 -1.102916,4.91756 -1.503447,8.53665 -1.518301,13.71899 -0.01122,3.9124 0.08868,5.24581 0.559636,7.47016 1.508546,7.1249 4.133271,11.83545 10.186049,18.28072 1.75559,1.86943 1.81519,1.97674 1.675673,3.01693 -0.08513,0.63468 -0.403654,1.33754 -0.773962,1.70786 -0.630386,0.63038 -2.104983,0.9954 -2.849812,0.70544 z"
         id="path26" />
    </g>
  </g>
</svg>
